<svg width="1437" height="1237" viewBox="0 0 1437 1237" fill="none" xmlns="http://www.w3.org/2000/svg">
<g clip-path="url(#clip0_13_3591)">
<path d="M1455 132V130L1.99988 130V132L1455 132Z" fill="#03A6DA" fill-opacity="0.22"/>
<path d="M1455 270V268L1.99988 268V270L1455 270Z" fill="#03A6DA" fill-opacity="0.22"/>
<path d="M1455 408V406L2 406V408L1455 408Z" fill="#03A6DA" fill-opacity="0.22"/>
<path d="M1455 546V544L1.99988 544V546L1455 546Z" fill="#03A6DA" fill-opacity="0.22"/>
<path d="M1455 684V682L1.99988 682V684L1455 684Z" fill="#03A6DA" fill-opacity="0.22"/>
<path d="M1455 822V823L1.99988 823V822L1455 822Z" fill="#03A6DA" fill-opacity="0.22"/>
<path d="M1455 960V958L1.99988 958V960L1455 960Z" fill="#03A6DA" fill-opacity="0.22"/>
<path d="M1455 1098V1096H2V1098H1455Z" fill="#03A6DA" fill-opacity="0.22"/>
<path d="M1455 1236V1234H1.99988V1236H1455Z" fill="#03A6DA" fill-opacity="0.22"/>
<path d="M1058.36 1234.22H1060.12L1060.12 -8.56006H1058.36L1058.36 1234.22Z" fill="#03A6DA" fill-opacity="0.22"/>
<path d="M1190.65 1234.22H1192.41L1192.41 -8.56006H1190.65L1190.65 1234.22Z" fill="#03A6DA" fill-opacity="0.22"/>
<path d="M1322.95 1234.22H1324.71L1324.71 -8.56006H1322.95L1322.95 1234.22Z" fill="#03A6DA" fill-opacity="0.22"/>
<path d="M926.058 1234.22H927.822L927.822 -8.56006H926.058L926.058 1234.22Z" fill="#03A6DA" fill-opacity="0.22"/>
<path d="M793.765 1234.22H795.529L795.529 -8.56006H793.765L793.765 1234.22Z" fill="#03A6DA" fill-opacity="0.22"/>
<path d="M661.47 1234.22H663.234L663.234 -8.56006H661.47L661.47 1234.22Z" fill="#03A6DA" fill-opacity="0.22"/>
<path d="M529.176 1234.22H530.94L530.94 -8.56006H529.176L529.176 1234.22Z" fill="#03A6DA" fill-opacity="0.22"/>
<path d="M396.882 1234.22H398.646L398.646 -8.56006H396.882L396.882 1234.22Z" fill="#03A6DA" fill-opacity="0.22"/>
<path d="M264.589 1234.22H266.353L266.353 -8.56006H264.589L264.589 1234.22Z" fill="#03A6DA" fill-opacity="0.22"/>
<path d="M132.295 1234.22H134.059L134.059 -8.56006H132.295L132.295 1234.22Z" fill="#03A6DA" fill-opacity="0.22"/>
<path d="M0 1235H2L2 -9H0L0 1235Z" fill="#03A6DA" fill-opacity="0.22"/>
</g>
<defs>
<clipPath id="clip0_13_3591">
<rect width="1437" height="1237" fill="white"/>
</clipPath>
</defs>
</svg>
