<svg width="196" height="71" viewBox="0 0 196 71" fill="none" xmlns="http://www.w3.org/2000/svg">
<ellipse cx="98.0283" cy="35.3965" rx="97.9121" ry="31.5845" fill="#CFD9E6"/>
<path d="M194.86 19.7413C195.536 23.8206 193.631 28.216 189.408 32.7036C185.192 37.1842 178.73 41.6826 170.483 45.9368C153.995 54.4426 130.477 61.9191 103.84 66.3333C77.2033 70.7475 52.5309 71.2569 34.1805 68.5245C25.0024 67.1578 17.4348 64.9843 11.9986 62.1033C6.55396 59.2178 3.33293 55.6718 2.65693 51.5926C1.98093 47.5133 3.88593 43.1179 8.10875 38.6303C12.325 34.1497 18.787 29.6513 27.0336 25.3971C43.5216 16.8913 67.0395 9.41482 93.6765 5.00064C120.313 0.58645 144.986 0.0769945 163.336 2.80944C172.514 4.17609 180.082 6.34959 185.518 9.23062C190.963 12.1161 194.184 15.6621 194.86 19.7413Z" stroke="#11181C"/>
</svg>
