<svg width="75" height="76" viewBox="0 0 75 76" fill="none" xmlns="http://www.w3.org/2000/svg">
<path d="M30.3639 19.25H44.6431C44.3416 17.9303 44.0109 16.6855 43.651 15.5287C41.965 10.1064 39.7829 6.75 37.5003 6.75C35.2177 6.75 33.0388 10.1064 31.3496 15.5287C30.9897 16.6822 30.659 17.9303 30.3574 19.25H30.3639Z" fill="#11181C"/>
<path d="M30.0261 54.0714H44.9736C45.8465 49.6412 46.3709 44.4564 46.4284 38.8928H28.5713C28.6288 44.4564 29.1532 49.6412 30.0261 54.0714Z" fill="#11181C"/>
<path d="M22.5843 15.8681C21.8462 16.9215 21.1624 18.0521 20.5361 19.25H28.4445C28.78 17.7212 29.1539 16.2889 29.5661 14.9721C30.5247 11.8888 31.7005 9.38685 33.0361 7.64288C29.0196 8.91473 25.4153 11.8245 22.5875 15.8713L22.5843 15.8681Z" fill="#11181C"/>
<path d="M16.0713 38.8928C16.2001 44.4658 17.3784 49.6568 19.3391 54.0714H27.6784C26.8395 49.6005 26.3367 44.422 26.2833 38.8928H16.0744H16.0713Z" fill="#11181C"/>
<path d="M19.34 21.0358C17.3788 25.71 16.2002 31.2064 16.0713 37.1072H26.283C26.3364 31.2528 26.8392 25.7697 27.6784 21.0358H19.3369H19.34Z" fill="#11181C"/>
<path d="M44.9736 21.0358H30.0261C29.1532 25.7266 28.6288 31.2163 28.5713 37.1072H46.4284C46.3709 31.2163 45.8465 25.7266 44.9736 21.0358Z" fill="#11181C"/>
<path d="M46.8835 19.25H55.3567C54.6857 18.0524 53.9531 16.9254 53.1623 15.869C50.129 11.8266 46.2672 8.91437 41.9639 7.64288C43.3949 9.38637 44.6548 11.8876 45.6818 14.97C46.1201 16.2897 46.524 17.7217 46.8835 19.2468V19.25Z" fill="#11181C"/>
<path d="M61.2341 37.1072H68.7504C68.5621 31.2064 66.8055 25.7067 63.8965 21.0358H58.0361C59.9582 25.7863 61.1108 31.2627 61.2341 37.1072Z" fill="#11181C"/>
<path d="M47.3213 54.0714H55.6606C57.6213 49.6568 58.7996 44.4658 58.9284 38.8928H48.7195C48.6661 44.422 48.1634 49.6005 47.3244 54.0714H47.3213Z" fill="#11181C"/>
<path d="M54.3041 14.3699C55.3183 15.8696 56.2399 17.5032 57.0592 19.25H62.5003C61.6083 18.0248 60.6403 16.8683 59.5997 15.7839C56.6264 12.6952 53.0651 10.2173 49.1074 8.53571C51.0202 10.135 52.7646 12.1014 54.3041 14.3699Z" fill="#11181C"/>
<path d="M55.6629 21.0358H47.3213C48.1605 25.773 48.6633 31.2528 48.7168 37.1072H58.9284C58.7996 31.2031 57.621 25.71 55.6597 21.0358H55.6629Z" fill="#11181C"/>
<path d="M53.1623 60.1287C53.9497 59.0753 54.6857 57.9448 55.3567 56.75H46.8835C46.524 58.2788 46.1235 59.7112 45.6818 61.028C44.6548 64.1112 43.3949 66.6132 41.9639 68.3571C46.2672 67.0853 50.129 64.1755 53.1623 60.1287Z" fill="#11181C"/>
<path d="M54.3041 61.2217C52.7679 63.305 51.0202 65.1081 49.1074 66.5714C53.0651 65.0326 56.6231 62.7574 59.5997 59.9252C60.6403 58.9308 61.6116 57.8703 62.5003 56.75H57.0592C56.2399 58.3518 55.3183 59.8497 54.3041 61.2249V61.2217Z" fill="#11181C"/>
<path d="M44.6366 56.75H30.3574C30.659 58.0701 30.9897 59.3152 31.3496 60.4691C33.0356 65.8961 35.2177 69.25 37.5003 69.25C39.7829 69.25 41.9617 65.8928 43.651 60.4691C44.0109 59.3152 44.3416 58.0701 44.6431 56.75H44.6366Z" fill="#11181C"/>
<path d="M58.0361 54.0714H63.8965C66.8055 49.6568 68.5621 44.4658 68.7504 38.8928H61.2341C61.1075 44.4126 59.9582 49.588 58.0361 54.0714Z" fill="#11181C"/>
<path d="M13.7662 38.8928H6.25C6.43831 44.4658 8.19479 49.66 11.1039 54.0714H16.9643C15.0422 49.588 13.8896 44.4126 13.7662 38.8928Z" fill="#11181C"/>
<path d="M20.6963 14.3699C22.2325 12.098 23.9801 10.1315 25.8929 8.53571C21.9351 10.2139 18.3771 12.6952 15.4006 15.7839C14.3599 16.8683 13.3887 18.0248 12.5 19.25H17.941C18.7603 17.5032 19.6821 15.8696 20.6963 14.3699Z" fill="#11181C"/>
<path d="M28.4465 56.75H20.5361C21.1626 57.948 21.8465 59.0753 22.5848 60.1287C25.4166 64.1755 29.0186 67.0885 33.0361 68.3571C31.7002 66.6132 30.524 64.1112 29.5652 61.028C29.1561 59.708 28.7789 58.2756 28.4433 56.75H28.4465Z" fill="#11181C"/>
<path d="M16.9643 21.0358H11.1039C8.19154 25.71 6.43831 31.2064 6.25 37.1072H13.7662C13.8928 31.2627 15.0422 25.7829 16.9643 21.0358Z" fill="#11181C"/>
<path d="M20.6963 61.2249C19.6821 59.8497 18.7603 58.3518 17.941 56.75H12.5C13.392 57.8734 14.3599 58.934 15.4006 59.9252C18.3738 62.7574 21.9351 65.0326 25.8929 66.5714C23.9801 65.1081 22.2358 63.305 20.6963 61.2217V61.2249Z" fill="#11181C"/>
<path d="M72.8316 38.0016H70.6599C70.6599 47.166 66.9527 55.4409 60.9472 61.4466C54.9385 67.4491 46.664 71.1564 37.5 71.1596C28.336 71.1596 20.0615 67.4523 14.0528 61.4466C8.05057 55.4377 4.34344 47.1628 4.34019 38.0016C4.34019 28.8372 8.04732 20.5623 14.0528 14.5534C20.0615 8.54767 28.336 4.84355 37.5 4.8403C46.664 4.8403 54.9385 8.54767 60.9472 14.5534C66.9494 20.5623 70.6566 28.8372 70.6599 38.0016H75C75 17.29 58.2139 0.5 37.5 0.5C16.7893 0.5 0.00324619 17.2868 0 38.0016C0 58.7132 16.7861 75.5 37.5 75.5C58.2107 75.5 74.9968 58.7132 75 38.0016H72.8283H72.8316Z" fill="#11181C"/>
</svg>
