<svg width="12" height="13" viewBox="0 0 12 13" fill="none" xmlns="http://www.w3.org/2000/svg">
<path d="M11.5687 4.39168C11.5687 3.87383 11.4382 3.48544 11.2424 2.9676C11.1119 2.57921 10.851 2.25556 10.5247 1.99663C10.1985 1.73771 9.93751 1.47878 9.54603 1.28459C9.15455 1.0904 8.63258 0.960938 8.11062 0.960938C7.5234 0.960938 7.32765 0.960938 5.89224 0.960938C4.39158 0.960938 4.26109 0.960938 3.67387 0.960938C3.1519 0.960938 2.76043 1.0904 2.23846 1.28459C1.84698 1.41405 1.52075 1.67298 1.25976 1.99663C0.933533 2.32029 0.73779 2.57921 0.542051 2.9676C0.346313 3.35598 0.21582 3.87383 0.21582 4.39168C0.21582 4.97426 0.21582 5.16845 0.21582 6.59253C0.21582 8.01661 0.21582 8.2108 0.21582 8.79338C0.21582 9.31123 0.346313 9.69961 0.542051 10.2175C0.868282 10.9942 1.4555 11.6415 2.23846 11.9005C2.62993 12.0947 3.1519 12.2241 3.67387 12.2241C4.26109 12.2241 4.45682 12.2241 5.89224 12.2241C7.32765 12.2241 7.5234 12.2241 8.11062 12.2241C8.63258 12.2241 9.02406 12.0947 9.54603 11.9005C10.329 11.5768 10.9815 10.9942 11.2424 10.2175C11.4382 9.82907 11.5687 9.31123 11.5687 8.79338C11.5687 8.2108 11.5687 8.01661 11.5687 6.59253C11.5687 5.10372 11.5687 4.97426 11.5687 4.39168ZM10.1332 6.59253C10.1332 8.08134 10.1332 8.2108 10.1332 8.79338C10.1332 9.11703 10.0028 9.37596 9.93751 9.69961C9.74177 10.088 9.41553 10.4117 9.02406 10.6058C8.69783 10.7353 8.43685 10.8 8.11062 10.8C7.5234 10.8 7.3929 10.8 5.89224 10.8C4.39158 10.8 4.26109 10.8 3.67387 10.8C3.34764 10.8 3.08666 10.6706 2.76043 10.6058C2.36895 10.4117 2.04271 10.088 1.84698 9.69961C1.71648 9.37596 1.65123 9.11703 1.65123 8.79338C1.65123 8.2108 1.65123 8.08134 1.65123 6.59253C1.65123 5.16845 1.65123 4.97426 1.65123 4.39168C1.65123 4.06802 1.78173 3.8091 1.84698 3.48544C2.04271 3.09706 2.36895 2.7734 2.76043 2.57921C3.08666 2.44975 3.34764 2.38502 3.67387 2.38502C4.19584 2.38502 4.39158 2.38502 5.89224 2.38502C7.32765 2.38502 7.5234 2.38502 8.11062 2.38502C8.43685 2.38502 8.69783 2.51448 9.02406 2.57921C9.41553 2.7734 9.74177 3.09706 9.93751 3.48544C10.068 3.8091 10.1332 4.06802 10.1332 4.39168C10.1332 4.97426 10.1332 5.16845 10.1332 6.59253Z" fill="#1E2433"/>
<path d="M5.95805 4.19922C4.65313 4.19922 3.54395 5.29964 3.54395 6.59426C3.54395 7.88888 4.65313 8.98931 5.95805 8.98931C7.26298 8.98931 8.37216 7.88888 8.37216 6.59426C8.37216 5.29964 7.26298 4.19922 5.95805 4.19922ZM5.95805 7.75942C5.37084 7.75942 4.78362 7.24157 4.78362 6.59426C4.78362 5.94695 5.30559 5.42911 5.95805 5.42911C6.67576 5.42911 7.13249 5.94695 7.13249 6.59426C7.13249 7.17684 6.54527 7.75942 5.95805 7.75942Z" fill="#1E2433"/>
<path d="M8.76244 3.09766C8.37097 3.09766 7.97949 3.42131 7.97949 3.87443C7.97949 4.26281 8.30572 4.6512 8.76244 4.6512C9.28441 4.6512 9.5454 4.32754 9.5454 3.87443C9.4149 3.35658 9.15392 3.09766 8.76244 3.09766Z" fill="#1E2433"/>
</svg>
