<svg width="196" height="56" viewBox="0 0 196 56" fill="none" xmlns="http://www.w3.org/2000/svg">
<rect width="196" height="56" rx="28" fill="#1E2433"/>
<g filter="url(#filter0_d_10_1007)">
<path d="M47.5003 34.432C48.3191 33.5913 48.9401 32.624 49.3646 31.534C49.7904 30.444 50.0026 29.2761 50 28.0462C50 26.8163 49.7759 25.6484 49.3292 24.5584C48.8811 23.4683 48.2405 22.4918 47.4073 21.6512C46.557 20.8079 45.5731 20.1468 44.4543 19.7034C43.3354 19.2587 42.1419 19 40.8777 19H34.318V31.3295H38.226V22.9457H40.8777C41.6336 22.9457 42.3293 23.1213 42.9621 23.3707C43.5949 23.6201 44.1412 24.0173 44.6049 24.462C45.0687 24.9054 45.4264 25.4346 45.6832 26.0509C45.9386 26.6658 46.0644 27.3296 46.0644 28.0449C46.0644 28.7931 45.9373 29.4754 45.6832 30.1075C45.4277 30.7369 45.0727 31.2648 44.6167 31.7174C44.1634 32.1688 43.6145 32.4921 42.9739 32.7389C42.3319 32.9896 41.6336 33.0556 40.8777 33.0556H32.3646V19H28.2128V25.1641H19.9081V19H16V37H19.9081V29.1098H28.2115V37H40.8777C42.1747 37 43.4088 36.8311 44.5827 36.3481C45.1395 36.1132 45.6635 35.9047 46.1587 35.5774C46.6526 35.2501 47.0981 34.8701 47.5003 34.432Z" fill="#F7F9FD"/>
<g clip-path="url(#clip0_10_1007)">
<path d="M58.0029 20.4331H59.3808V27.2707H58.0029V24.438H55.3879V27.2707H54V20.4331H55.3879V23.1486H58.0029V20.4331ZM66.6125 26.3819C65.9018 27.0656 65.0368 27.4075 64.0176 27.4075C62.9985 27.4075 62.1335 27.0656 61.4228 26.3819C60.7188 25.6916 60.3668 24.8483 60.3668 23.8519C60.3668 22.8556 60.7188 22.0156 61.4228 21.3318C62.1335 20.6415 62.9985 20.2964 64.0176 20.2964C65.0368 20.2964 65.9018 20.6415 66.6125 21.3318C67.3232 22.0156 67.6785 22.8556 67.6785 23.8519C67.6785 24.8483 67.3232 25.6916 66.6125 26.3819ZM62.3984 25.4637C62.8342 25.8804 63.3739 26.0888 64.0176 26.0888C64.6613 26.0888 65.2011 25.8804 65.6369 25.4637C66.0727 25.0404 66.2906 24.5031 66.2906 23.8519C66.2906 23.2007 66.0727 22.6635 65.6369 22.2402C65.2011 21.8169 64.6613 21.6053 64.0176 21.6053C63.3739 21.6053 62.8342 21.8169 62.3984 22.2402C61.9626 22.6635 61.7446 23.2007 61.7446 23.8519C61.7446 24.5031 61.9626 25.0404 62.3984 25.4637ZM74.5779 26.3819C73.8672 27.0656 73.0022 27.4075 71.9831 27.4075C70.964 27.4075 70.099 27.0656 69.3883 26.3819C68.6842 25.6916 68.3322 24.8483 68.3322 23.8519C68.3322 22.8556 68.6842 22.0156 69.3883 21.3318C70.099 20.6415 70.964 20.2964 71.9831 20.2964C73.0022 20.2964 73.8672 20.6415 74.5779 21.3318C75.2887 22.0156 75.644 22.8556 75.644 23.8519C75.644 24.8483 75.2887 25.6916 74.5779 26.3819ZM70.3638 25.4637C70.7996 25.8804 71.3394 26.0888 71.9831 26.0888C72.6268 26.0888 73.1665 25.8804 73.6023 25.4637C74.0381 25.0404 74.2561 24.5031 74.2561 23.8519C74.2561 23.2007 74.0381 22.6635 73.6023 22.2402C73.1665 21.8169 72.6268 21.6053 71.9831 21.6053C71.3394 21.6053 70.7996 21.8169 70.3638 22.2402C69.928 22.6635 69.7101 23.2007 69.7101 23.8519C69.7101 24.5031 69.928 25.0404 70.3638 25.4637ZM83.5089 20.4331V27.2707H82.131V22.8361L80.1497 26.0107H79.9888L78.0075 22.8458V27.2707H76.6195V20.4331H78.0477L80.0692 23.6664L82.0807 20.4331H83.5089ZM89.3466 27.2707L88.9242 26.04H86.1181L85.6957 27.2707H84.1971L86.6612 20.4331H88.3811L90.8552 27.2707H89.3466ZM86.5606 24.7799H88.4917L87.5262 21.9863L86.5606 24.7799ZM95.6121 20.4331H97V27.2707H95.944L92.9267 23.09V27.2707H91.5388V20.4331H92.5948L95.6121 24.6041V20.4331Z" fill="#F7F9FD"/>
<path d="M56.3593 29.881C57.1923 29.881 57.8797 30.1732 58.4215 30.7576C58.9691 31.3362 59.2428 32.0467 59.2428 32.8889C59.2428 33.7312 58.9691 34.4445 58.4215 35.0289C57.8797 35.6076 57.1923 35.8969 56.3593 35.8969H54V29.881H56.3593ZM56.3593 35.3297C57.0292 35.3297 57.5768 35.0948 58.002 34.625C58.4331 34.1551 58.6487 33.5765 58.6487 32.8889C58.6487 32.2014 58.4331 31.6227 58.002 31.1529C57.5768 30.6831 57.0292 30.4482 56.3593 30.4482H54.6117V35.3297H56.3593ZM60.289 29.881H60.9007V35.8969H60.289V29.881ZM68.1486 33.035V33.3444C68.1486 34.0893 67.8778 34.7195 67.336 35.2352C66.7942 35.7451 66.069 36.0001 65.1602 36.0001C64.234 36.0001 63.468 35.6993 62.8621 35.0977C62.2563 34.4961 61.9533 33.7598 61.9533 32.8889C61.9533 32.0181 62.2563 31.2818 62.8621 30.6802C63.468 30.0786 64.234 29.7778 65.1602 29.7778C65.7253 29.7778 66.2437 29.9125 66.7156 30.1818C67.1875 30.451 67.5516 30.8091 67.8079 31.256L67.2661 31.5654C67.0739 31.1987 66.7884 30.9065 66.4098 30.6888C66.0311 30.4711 65.6146 30.3622 65.1602 30.3622C64.3971 30.3622 63.7738 30.6057 63.2903 31.0927C62.8068 31.5798 62.565 32.1785 62.565 32.8889C62.565 33.5994 62.8068 34.1981 63.2903 34.6851C63.7738 35.1722 64.3971 35.4156 65.1602 35.4156C65.8476 35.4156 66.3981 35.2466 66.8117 34.9086C67.2254 34.5648 67.4613 34.1294 67.5195 33.6023H65.0903V33.035H68.1486ZM69.1978 29.881H69.8094V35.8969H69.1978V29.881ZM75.0564 29.881V30.4482H73.1777V35.8969H72.566V30.4482H70.6873V29.881H75.0564ZM79.5673 35.8969L78.9993 34.4187H76.0983L75.5303 35.8969H74.8837L77.2342 29.881H77.8634L80.2139 35.8969H79.5673ZM76.3167 33.8515H78.7809L77.5488 30.6287L76.3167 33.8515ZM81.611 35.3297H84.4071V35.8969H80.9993V29.881H81.611V35.3297Z" fill="#F7F9FD"/>
</g>
</g>
<rect width="71" height="40" rx="20" transform="matrix(1 1.74846e-07 1.74846e-07 -1 117 48)" fill="#F7F9FD"/>
<path d="M144.9 27.9998H159.042" stroke="black" stroke-width="1.5" stroke-linecap="round" stroke-linejoin="round"/>
<path d="M151.971 20.9287L159.042 27.9998L151.971 35.0708" stroke="black" stroke-width="1.5" stroke-linecap="round" stroke-linejoin="round"/>
<defs>
<filter id="filter0_d_10_1007" x="12" y="19" width="97" height="26" filterUnits="userSpaceOnUse" color-interpolation-filters="sRGB">
<feFlood flood-opacity="0" result="BackgroundImageFix"/>
<feColorMatrix in="SourceAlpha" type="matrix" values="0 0 0 0 0 0 0 0 0 0 0 0 0 0 0 0 0 0 127 0" result="hardAlpha"/>
<feOffset dy="4"/>
<feGaussianBlur stdDeviation="2"/>
<feComposite in2="hardAlpha" operator="out"/>
<feColorMatrix type="matrix" values="0 0 0 0 0 0 0 0 0 0 0 0 0 0 0 0 0 0 0.25 0"/>
<feBlend mode="normal" in2="BackgroundImageFix" result="effect1_dropShadow_10_1007"/>
<feBlend mode="normal" in="SourceGraphic" in2="effect1_dropShadow_10_1007" result="shape"/>
</filter>
<clipPath id="clip0_10_1007">
<rect width="43" height="16" fill="white" transform="translate(54 20)"/>
</clipPath>
</defs>
</svg>
