<svg width="102" height="24" viewBox="0 0 102 24" fill="none" xmlns="http://www.w3.org/2000/svg">
<path d="M2.926 17H1.134V6.766H2.926V10.994H7.462V6.766H9.254V17H7.462V12.66H2.926V17ZM11.9866 13.528C11.9866 11.372 13.5406 9.888 15.6826 9.888C17.8246 9.888 19.3786 11.372 19.3786 13.528C19.3786 15.684 17.8246 17.168 15.6826 17.168C13.5406 17.168 11.9866 15.684 11.9866 13.528ZM13.6946 13.528C13.6946 14.788 14.5066 15.642 15.6826 15.642C16.8586 15.642 17.6706 14.788 17.6706 13.528C17.6706 12.268 16.8586 11.414 15.6826 11.414C14.5066 11.414 13.6946 12.268 13.6946 13.528ZM21.4465 13.528C21.4465 11.372 23.0005 9.888 25.1425 9.888C27.2845 9.888 28.8385 11.372 28.8385 13.528C28.8385 15.684 27.2845 17.168 25.1425 17.168C23.0005 17.168 21.4465 15.684 21.4465 13.528ZM23.1545 13.528C23.1545 14.788 23.9665 15.642 25.1425 15.642C26.3185 15.642 27.1305 14.788 27.1305 13.528C27.1305 12.268 26.3185 11.414 25.1425 11.414C23.9665 11.414 23.1545 12.268 23.1545 13.528ZM33.0203 17H31.3123V10.084H32.8803L33.0203 10.896C33.3703 10.322 34.0703 9.874 35.0643 9.874C36.1143 9.874 36.8423 10.392 37.2063 11.19C37.5563 10.392 38.3683 9.874 39.4183 9.874C41.0983 9.874 42.0223 10.882 42.0223 12.478V17H40.3283V12.926C40.3283 11.932 39.7963 11.414 38.9843 11.414C38.1583 11.414 37.5283 11.946 37.5283 13.08V17H35.8203V12.912C35.8203 11.946 35.3023 11.428 34.4903 11.428C33.6783 11.428 33.0203 11.96 33.0203 13.08V17ZM46.877 17.182C45.407 17.182 44.511 16.328 44.511 15.026C44.511 13.752 45.435 12.954 47.073 12.828L49.145 12.674V12.52C49.145 11.582 48.585 11.204 47.717 11.204C46.709 11.204 46.149 11.624 46.149 12.352H44.693C44.693 10.854 45.925 9.874 47.801 9.874C49.663 9.874 50.811 10.882 50.811 12.8V17H49.313L49.187 15.978C48.893 16.692 47.955 17.182 46.877 17.182ZM47.437 15.894C48.487 15.894 49.159 15.264 49.159 14.2V13.836L47.717 13.948C46.653 14.046 46.247 14.396 46.247 14.956C46.247 15.586 46.667 15.894 47.437 15.894ZM55.317 17H53.609V10.084H55.191L55.331 10.98C55.765 10.28 56.605 9.874 57.543 9.874C59.279 9.874 60.175 10.952 60.175 12.744V17H58.467V13.15C58.467 11.988 57.893 11.428 57.011 11.428C55.961 11.428 55.317 12.156 55.317 13.276V17Z" fill="#1E2433"/>
<path d="M69.816 17H66.134V6.766H69.718C72.742 6.766 74.828 8.852 74.828 11.904C74.828 14.914 72.784 17 69.816 17ZM69.55 8.418H67.926V15.348H69.648C71.692 15.348 72.938 14.032 72.938 11.904C72.938 9.734 71.664 8.418 69.55 8.418ZM76.9593 13.528C76.9593 11.372 78.5133 9.888 80.6553 9.888C82.7973 9.888 84.3513 11.372 84.3513 13.528C84.3513 15.684 82.7973 17.168 80.6553 17.168C78.5133 17.168 76.9593 15.684 76.9593 13.528ZM78.6673 13.528C78.6673 14.788 79.4793 15.642 80.6553 15.642C81.8313 15.642 82.6433 14.788 82.6433 13.528C82.6433 12.268 81.8313 11.414 80.6553 11.414C79.4793 11.414 78.6673 12.268 78.6673 13.528ZM86.4191 13.528C86.4191 11.386 87.8331 9.874 89.8771 9.874C91.7671 9.874 93.0551 10.924 93.2371 12.59H91.5291C91.3331 11.806 90.7591 11.4 89.9471 11.4C88.8551 11.4 88.1271 12.226 88.1271 13.528C88.1271 14.83 88.7991 15.642 89.8911 15.642C90.7451 15.642 91.3471 15.222 91.5291 14.466H93.2511C93.0411 16.076 91.6971 17.182 89.8911 17.182C87.7911 17.182 86.4191 15.726 86.4191 13.528ZM95.1104 14.9H96.7344C96.7484 15.502 97.1964 15.88 97.9804 15.88C98.7784 15.88 99.2124 15.558 99.2124 15.054C99.2124 14.704 99.0304 14.452 98.4144 14.312L97.1684 14.018C95.9224 13.738 95.3204 13.15 95.3204 12.044C95.3204 10.686 96.4684 9.874 98.0644 9.874C99.6184 9.874 100.668 10.77 100.682 12.114H99.0584C99.0444 11.526 98.6524 11.148 97.9944 11.148C97.3224 11.148 96.9304 11.456 96.9304 11.974C96.9304 12.366 97.2384 12.618 97.8264 12.758L99.0724 13.052C100.234 13.318 100.822 13.85 100.822 14.914C100.822 16.314 99.6324 17.182 97.9244 17.182C96.2024 17.182 95.1104 16.258 95.1104 14.9Z" fill="#446BA1"/>
</svg>
