<svg width="36" height="36" viewBox="0 0 36 36" fill="none" xmlns="http://www.w3.org/2000/svg">
<path d="M0 8C0 3.58172 3.58172 0 8 0H28C32.4183 0 36 3.58172 36 8V28C36 32.4183 32.4183 36 28 36H8C3.58172 36 0 32.4183 0 28V8Z" fill="#1E2433"/>
<path d="M28.2355 22.288C28.8135 21.7276 29.2518 21.0827 29.5515 20.356C29.852 19.6293 30.0018 18.8507 30 18.0308C30 17.2109 29.8418 16.4323 29.5265 15.7056C29.2102 14.9789 28.758 14.3279 28.1698 13.7674C27.5696 13.2053 26.8751 12.7645 26.0854 12.4689C25.2956 12.1724 24.4531 12 23.5607 12H18.9303V20.2196H21.689V14.6305H23.5607C24.0943 14.6305 24.5854 14.7475 25.032 14.9138C25.4787 15.0801 25.8643 15.3449 26.1917 15.6413C26.5191 15.9369 26.7716 16.2897 26.9528 16.7006C27.1332 17.1106 27.2219 17.5531 27.2219 18.0299C27.2219 18.5287 27.1322 18.9836 26.9528 19.405C26.7725 19.8246 26.5219 20.1765 26.2 20.4783C25.8801 20.7792 25.4926 20.9947 25.0404 21.1592C24.5872 21.3264 24.0943 21.3704 23.5607 21.3704H17.5515V12H14.6208V16.1094H8.75863V12H6V24H8.75863V18.7399H14.6199V24H23.5607C24.4762 24 25.3474 23.8874 26.176 23.5654C26.569 23.4088 26.9389 23.2698 27.2885 23.0516C27.6372 22.8334 27.9516 22.5801 28.2355 22.288Z" fill="#F7F9FD"/>
</svg>
