<svg width="145" height="30" viewBox="0 0 145 30" fill="none" xmlns="http://www.w3.org/2000/svg">
<path d="M51.3207 25.142C52.6547 23.7724 53.6664 22.1965 54.358 20.4206C55.0517 18.6447 55.3975 16.742 55.3932 14.7382C55.3932 12.7344 55.0282 10.8316 54.3004 9.05575C53.5704 7.27986 52.5266 5.68887 51.1691 4.31933C49.7839 2.94549 48.1809 1.86834 46.3581 1.14594C44.5353 0.421399 42.5908 0 40.531 0H29.8439V20.0873H36.2109V6.42846H40.531C41.7626 6.42846 42.896 6.71441 43.927 7.12076C44.9579 7.52711 45.848 8.17425 46.6035 8.8988C47.3591 9.62119 47.9418 10.4833 48.3602 11.4874C48.7764 12.4893 48.9813 13.5707 48.9813 14.736C48.9813 15.9551 48.7743 17.0666 48.3602 18.0964C47.944 19.122 47.3656 19.982 46.6228 20.7194C45.8842 21.4547 44.9899 21.9815 43.9462 22.3835C42.9003 22.792 41.7626 22.8995 40.531 22.8995H26.6614V0H19.8973V10.0426H6.36706V0H0V29.3258H6.36706V16.4711H19.8952V29.3258H40.531C42.6441 29.3258 44.6548 29.0506 46.5673 28.2637C47.4744 27.881 48.3282 27.5413 49.135 27.0081C49.9397 26.4749 50.6654 25.8558 51.3207 25.142Z" fill="#F7F9FD"/>
<g clip-path="url(#clip0_22_447)">
<path d="M68.4317 2.33706H70.6765V13.477H68.4317V8.86187H64.1714V13.477H61.9102V2.33706H64.1714V6.7612H68.4317V2.33706ZM82.4585 12.0288C81.3007 13.1428 79.8915 13.6998 78.231 13.6998C76.5706 13.6998 75.1614 13.1428 74.0035 12.0288C72.8565 10.9042 72.283 9.53026 72.283 7.90702C72.283 6.28377 72.8565 4.91515 74.0035 3.80116C75.1614 2.67656 76.5706 2.11426 78.231 2.11426C79.8915 2.11426 81.3007 2.67656 82.4585 3.80116C83.6165 4.91515 84.1954 6.28377 84.1954 7.90702C84.1954 9.53026 83.6165 10.9042 82.4585 12.0288ZM75.5929 10.5329C76.303 11.2119 77.1823 11.5514 78.231 11.5514C79.2797 11.5514 80.1591 11.2119 80.8691 10.5329C81.5792 9.84324 81.9342 8.96797 81.9342 7.90702C81.9342 6.84607 81.5792 5.97079 80.8691 5.28118C80.1591 4.59157 79.2797 4.24676 78.231 4.24676C77.1823 4.24676 76.303 4.59157 75.5929 5.28118C74.8829 5.97079 74.5278 6.84607 74.5278 7.90702C74.5278 8.96797 74.8829 9.84324 75.5929 10.5329ZM95.436 12.0288C94.278 13.1428 92.8688 13.6998 91.2084 13.6998C89.5481 13.6998 88.1389 13.1428 86.9809 12.0288C85.8339 10.9042 85.2604 9.53026 85.2604 7.90702C85.2604 6.28377 85.8339 4.91515 86.9809 3.80116C88.1389 2.67656 89.5481 2.11426 91.2084 2.11426C92.8688 2.11426 94.278 2.67656 95.436 3.80116C96.5939 4.91515 97.1729 6.28377 97.1729 7.90702C97.1729 9.53026 96.5939 10.9042 95.436 12.0288ZM88.5703 10.5329C89.2804 11.2119 90.1598 11.5514 91.2084 11.5514C92.2571 11.5514 93.1365 11.2119 93.8466 10.5329C94.5566 9.84324 94.9116 8.96797 94.9116 7.90702C94.9116 6.84607 94.5566 5.97079 93.8466 5.28118C93.1365 4.59157 92.2571 4.24676 91.2084 4.24676C90.1598 4.24676 89.2804 4.59157 88.5703 5.28118C87.8603 5.97079 87.5053 6.84607 87.5053 7.90702C87.5053 8.96797 87.8603 9.84324 88.5703 10.5329ZM109.986 2.33706V13.477H107.742V6.25194L104.514 11.424H104.251L101.023 6.26786V13.477H98.7622V2.33706H101.089L104.383 7.60465L107.66 2.33706H109.986ZM119.497 13.477L118.809 11.4718H114.237L113.549 13.477H111.108L115.122 2.33706H117.924L121.955 13.477H119.497ZM114.958 9.41886H118.104L116.531 4.86741L114.958 9.41886ZM129.705 2.33706H131.966V13.477H130.246L125.33 6.66571V13.477H123.069V2.33706H124.789L129.705 9.13241V2.33706Z" fill="#F7F9FD"/>
<path d="M65.7539 17.7281C67.1111 17.7281 68.231 18.2041 69.1137 19.1563C70.0058 20.099 70.4519 21.2565 70.4519 22.6287C70.4519 24.0009 70.0058 25.1631 69.1137 26.1152C68.231 27.0579 67.1111 27.5294 65.7539 27.5294H61.9102V17.7281H65.7539ZM65.7539 26.6052C66.8454 26.6052 67.7375 26.2226 68.4303 25.4571C69.1326 24.6916 69.4838 23.7489 69.4838 22.6287C69.4838 21.5086 69.1326 20.5658 68.4303 19.8004C67.7375 19.0349 66.8454 18.6522 65.7539 18.6522H62.9067V26.6052H65.7539ZM72.1563 17.7281H73.1528V27.5294H72.1563V17.7281ZM84.9613 22.8668V23.3708C84.9613 24.5843 84.52 25.6111 83.6373 26.4512C82.7547 27.282 81.5731 27.6974 80.0925 27.6974C78.5835 27.6974 77.3355 27.2073 76.3484 26.2272C75.3614 25.2471 74.8678 24.0475 74.8678 22.6287C74.8678 21.2099 75.3614 20.0104 76.3484 19.0303C77.3355 18.0501 78.5835 17.5601 80.0925 17.5601C81.0132 17.5601 81.8578 17.7795 82.6266 18.2181C83.3953 18.6568 83.9885 19.2403 84.4061 19.9684L83.5235 20.4724C83.2103 19.875 82.7453 19.3989 82.1283 19.0443C81.5114 18.6896 80.8328 18.5122 80.0925 18.5122C78.8493 18.5122 77.8338 18.9089 77.046 19.7023C76.2583 20.4958 75.8644 21.4712 75.8644 22.6287C75.8644 23.7862 76.2583 24.7616 77.046 25.5551C77.8338 26.3486 78.8493 26.7453 80.0925 26.7453C81.2125 26.7453 82.1094 26.4699 82.7832 25.9192C83.4571 25.3591 83.8415 24.6496 83.9363 23.7909H79.9786V22.8668H84.9613ZM86.6705 17.7281H87.6671V27.5294H86.6705V17.7281ZM96.2155 17.7281V18.6522H93.1547V27.5294H92.1582V18.6522H89.0974V17.7281H96.2155ZM103.565 27.5294L102.639 25.121H97.913L96.9876 27.5294H95.9341L99.7637 17.7281H100.789L104.618 27.5294H103.565ZM98.2689 24.1969H102.283L100.276 18.9462L98.2689 24.1969ZM106.894 26.6052H111.45V27.5294H105.898V17.7281H106.894V26.6052Z" fill="#F7F9FD"/>
</g>
<defs>
<clipPath id="clip0_22_447">
<rect width="70.0562" height="26.0674" fill="white" transform="translate(61.9102 1.62915)"/>
</clipPath>
</defs>
</svg>
