<svg width="16" height="16" viewBox="0 0 16 16" fill="none" xmlns="http://www.w3.org/2000/svg">
<path d="M15.0001 12.431C14.9991 12.6952 14.9393 12.9558 14.8251 13.194C14.7026 13.4545 14.5418 13.6951 14.3481 13.908C14.0322 14.2668 13.639 14.5492 13.1981 14.734C12.7646 14.9127 12.2999 15.0031 11.8311 15C11.0428 14.9854 10.2655 14.8116 9.54608 14.489C8.69219 14.1186 7.88302 13.6527 7.13408 13.1C6.31943 12.5052 5.5506 11.85 4.83408 11.14C4.12568 10.4284 3.47214 9.66424 2.87908 8.85401C2.33265 8.11173 1.87016 7.31118 1.50008 6.46701C1.18176 5.74521 1.01173 4.9668 1.00008 4.17801C0.996947 3.71571 1.08249 3.25709 1.25208 2.82701C1.43077 2.38216 1.70647 1.98279 2.05908 1.65801C2.24578 1.45644 2.471 1.29435 2.72143 1.18133C2.97186 1.06831 3.24241 1.00665 3.51708 1.00001C3.71343 0.99921 3.90749 1.04226 4.08508 1.12601C4.2745 1.21148 4.437 1.34702 4.55508 1.51801L6.18108 3.80701C6.29336 3.95876 6.38735 4.12323 6.46108 4.29701C6.52261 4.43123 6.55661 4.57643 6.56108 4.72401C6.5597 4.90113 6.50878 5.07433 6.41408 5.22401C6.30603 5.4075 6.17385 5.57567 6.02108 5.72401L5.48808 6.27701C5.451 6.31335 5.42189 6.35702 5.40261 6.40522C5.38333 6.45343 5.37429 6.50512 5.37608 6.55701C5.37617 6.61136 5.38322 6.66546 5.39708 6.71801C5.41808 6.77401 5.43908 6.81801 5.45308 6.85801C5.64115 7.17816 5.85949 7.47954 6.10508 7.75801C6.42008 8.12201 6.75708 8.49301 7.12208 8.86401C7.48708 9.23501 7.86508 9.57801 8.23708 9.89301C8.51415 10.138 8.81574 10.3539 9.13708 10.537C9.17208 10.551 9.21408 10.572 9.26308 10.593C9.3192 10.613 9.37852 10.6225 9.43808 10.621C9.49155 10.6221 9.54468 10.6121 9.59408 10.5917C9.64349 10.5712 9.6881 10.5406 9.72508 10.502L10.2581 9.97701C10.4044 9.82232 10.5729 9.69021 10.7581 9.58501C10.9074 9.48961 11.0809 9.43863 11.2581 9.43801C11.4053 9.43991 11.5508 9.47083 11.6861 9.52901C11.8588 9.60277 12.0233 9.69426 12.1771 9.80201L14.4971 11.447C14.6656 11.5568 14.7994 11.7121 14.8831 11.895C14.9562 12.0645 14.9959 12.2465 15.0001 12.431Z" stroke="#1E2433" stroke-width="1.2"/>
</svg>
