<svg width="16" height="16" viewBox="0 0 16 16" fill="none" xmlns="http://www.w3.org/2000/svg">
<path d="M14.4412 9.36658C14.6688 8.2938 14.6248 7.18117 14.3131 6.12972C14.0015 5.07828 13.4321 4.12136 12.6567 3.34586C11.8813 2.57036 10.9244 2.00086 9.87304 1.68908C8.82164 1.37731 7.709 1.33314 6.6362 1.56058C5.92997 1.11881 5.09483 0.929499 4.26714 1.02356C3.43944 1.11762 2.66808 1.4895 2.07899 2.07847C1.48989 2.66745 1.11787 3.43874 1.02364 4.26642C0.929418 5.09409 1.11856 5.92926 1.5602 6.63558C1.33261 7.70836 1.37664 8.821 1.68828 9.87244C1.99992 10.9239 2.5693 11.8808 3.3447 12.6563C4.1201 13.4318 5.07696 14.0013 6.12836 14.3131C7.17976 14.6249 8.29239 14.669 9.3652 14.4416C9.95121 14.8076 10.6283 15.0016 11.3192 15.0016C11.4185 15.0016 11.5185 14.9976 11.6192 14.9896C12.249 14.9379 12.8549 14.7251 13.3787 14.3716C13.9025 14.018 14.3265 13.5357 14.6099 12.9709C14.8934 12.4061 15.0267 11.7779 14.9972 11.1467C14.9676 10.5154 14.7762 9.90242 14.4412 9.36658ZM13.3142 13.3146C12.8456 13.7854 12.2256 14.0754 11.5638 14.133C10.902 14.1907 10.2411 14.0123 9.6982 13.6296C9.64808 13.5944 9.59102 13.5702 9.53083 13.5589C9.47064 13.5475 9.40871 13.5491 9.3492 13.5636C8.39544 13.7945 7.39834 13.7763 6.45364 13.5108C5.50893 13.2453 4.64834 12.7414 3.9545 12.0475C3.26066 11.3536 2.75688 10.4929 2.49152 9.54815C2.22616 8.6034 2.20815 7.6063 2.4392 6.65258C2.45407 6.59261 2.45588 6.53013 2.44449 6.4694C2.4331 6.40867 2.40879 6.35109 2.3732 6.30058C1.99533 5.75717 1.82049 5.09822 1.87925 4.43896C1.93801 3.77969 2.22663 3.16206 2.69465 2.69404C3.16267 2.22602 3.78031 1.9374 4.43957 1.87864C5.09884 1.81987 5.75778 1.99471 6.3012 2.37258C6.35131 2.40781 6.40837 2.43192 6.46856 2.4433C6.52875 2.45468 6.59068 2.45307 6.6502 2.43858C7.60391 2.20753 8.60102 2.22555 9.54576 2.4909C10.4905 2.75626 11.3512 3.26005 12.0451 3.95388C12.7391 4.64772 13.243 5.50831 13.5085 6.45302C13.7739 7.39773 13.7921 8.39483 13.5612 9.34858C13.5468 9.4081 13.5452 9.47002 13.5566 9.5302C13.568 9.59037 13.592 9.64744 13.6272 9.69758C14.0105 10.2404 14.1893 10.9013 14.132 11.5633C14.0747 12.2253 13.785 12.8457 13.3142 13.3146Z" fill="#1E2433" stroke="#1E2433" stroke-width="0.2"/>
<path d="M8.08698 7.50256C7.14598 7.18456 6.07997 6.82356 6.07997 6.29056C6.07997 5.61056 6.95998 5.03556 8.00098 5.03556C9.04198 5.03556 9.92197 5.61056 9.92197 6.29056C9.92197 6.41136 9.96997 6.52723 10.0554 6.61265C10.1408 6.69807 10.2567 6.74606 10.3775 6.74606C10.4983 6.74606 10.6141 6.69807 10.6996 6.61265C10.785 6.52723 10.833 6.41136 10.833 6.29056C10.8242 5.97528 10.739 5.66686 10.5847 5.39181C10.4304 5.11675 10.2115 4.88331 9.94698 4.71156C9.36988 4.32902 8.69285 4.125 8.00047 4.125C7.3081 4.125 6.63107 4.32902 6.05397 4.71156C5.78944 4.88331 5.5706 5.11675 5.41626 5.39181C5.26192 5.66686 5.17672 5.97528 5.16797 6.29056C5.18301 6.58646 5.27912 6.87255 5.44579 7.11752C5.61245 7.36249 5.84326 7.55691 6.11298 7.67956C6.64962 7.96169 7.21222 8.19143 7.79297 8.36556C8.83897 8.71956 9.92097 9.08556 9.92097 9.71156C9.92097 10.3916 9.04097 10.9666 7.99997 10.9666C6.95897 10.9666 6.07896 10.3916 6.07896 9.71156C6.07896 9.59076 6.03098 9.4749 5.94556 9.38947C5.86013 9.30405 5.74428 9.25606 5.62347 9.25606C5.50267 9.25606 5.3868 9.30405 5.30138 9.38947C5.21595 9.4749 5.16797 9.59076 5.16797 9.71156C5.17672 10.0268 5.26192 10.3353 5.41626 10.6103C5.5706 10.8854 5.78944 11.1188 6.05397 11.2906C6.63107 11.6731 7.3081 11.8771 8.00047 11.8771C8.69285 11.8771 9.36988 11.6731 9.94698 11.2906C10.2115 11.1188 10.4304 10.8854 10.5847 10.6103C10.739 10.3353 10.8242 10.0268 10.833 9.71156C10.834 8.43156 9.37498 7.93756 8.08698 7.50256Z" fill="#1E2433" stroke="#1E2433" stroke-width="0.2"/>
</svg>
