<svg width="320" height="180" viewBox="0 0 320 180" fill="none" xmlns="http://www.w3.org/2000/svg">
<path d="M70.2968 27.0813L83.332 34.1931L70.2968 41.3621L63.166 54.3863L56.0352 41.3621L43.0001 34.1931L56.0352 27.0813L63.166 14L70.2968 27.0813Z" fill="#0D0C22" stroke="#CFD9E6" stroke-miterlimit="10"/>
<path d="M279.451 33.9996L294.299 33.9187L286.359 46.4985L286.418 61.3469L273.877 53.3972L259 53.4282L266.969 40.8983L266.882 26L279.451 33.9996Z" fill="#0D0C22" stroke="#CFD9E6" stroke-miterlimit="10"/>
<path d="M54.9166 98.6614L63.569 98.6142L58.9419 105.944L58.9763 114.597L51.6686 109.964L43.0001 109.982L47.6433 102.681L47.5928 94L54.9166 98.6614Z" fill="#0D0C22" stroke="#CFD9E6" stroke-miterlimit="10"/>
<rect x="334.574" y="21.153" width="0.441035" height="340.127" transform="rotate(90 334.574 21.153)" fill="black" fill-opacity="0.25"/>
<rect x="334.574" y="54.2295" width="0.441035" height="340.127" transform="rotate(90 334.574 54.2295)" fill="black" fill-opacity="0.25"/>
<rect x="334.574" y="87.3059" width="0.441035" height="340.127" transform="rotate(90 334.574 87.3059)" fill="black" fill-opacity="0.25"/>
<rect x="334.574" y="120.382" width="0.441035" height="340.127" transform="rotate(90 334.574 120.382)" fill="black" fill-opacity="0.25"/>
<rect x="334.574" y="153.459" width="0.441035" height="340.127" transform="rotate(90 334.574 153.459)" fill="black" fill-opacity="0.25"/>
<rect x="239.932" y="252.688" width="0.422544" height="297.688" transform="rotate(-180 239.932 252.688)" fill="black" fill-opacity="0.25"/>
<rect x="271.621" y="252.688" width="0.422544" height="297.688" transform="rotate(-180 271.621 252.688)" fill="black" fill-opacity="0.25"/>
<rect x="303.311" y="252.688" width="0.422544" height="297.688" transform="rotate(-180 303.311 252.688)" fill="black" fill-opacity="0.25"/>
<rect x="208.243" y="252.688" width="0.422544" height="297.688" transform="rotate(-180 208.243 252.688)" fill="black" fill-opacity="0.25"/>
<rect x="176.555" y="252.688" width="0.422544" height="297.688" transform="rotate(-180 176.555 252.688)" fill="black" fill-opacity="0.25"/>
<path d="M144.866 252.688L144.444 252.688L144.444 -44.9998L144.866 -44.9998L144.866 252.688Z" fill="black" fill-opacity="0.25"/>
<rect x="113.177" y="252.688" width="0.422544" height="297.688" transform="rotate(-180 113.177 252.688)" fill="black" fill-opacity="0.25"/>
<rect x="81.4873" y="252.688" width="0.422544" height="297.688" transform="rotate(-180 81.4873 252.688)" fill="black" fill-opacity="0.25"/>
<rect x="49.7998" y="252.688" width="0.422544" height="297.688" transform="rotate(-180 49.7998 252.688)" fill="black" fill-opacity="0.25"/>
<rect x="18.1104" y="252.688" width="0.422544" height="297.688" transform="rotate(-180 18.1104 252.688)" fill="black" fill-opacity="0.25"/>
</svg>
