<svg width="13" height="11" viewBox="0 0 13 11" fill="none" xmlns="http://www.w3.org/2000/svg">
<path d="M11.1038 3.13165C11.1038 3.19638 11.1038 3.32584 11.1038 3.52004C11.1038 6.82131 8.55915 10.6404 3.92667 10.6404C2.42601 10.6404 1.18633 10.1873 0.0771484 9.54001C0.272887 9.54001 0.468626 9.54001 0.72961 9.54001C1.90404 9.54001 3.01323 9.15163 3.86143 8.43959C2.75224 8.43959 1.8388 7.72755 1.44732 6.69185C1.64306 6.69185 1.7083 6.69185 1.90404 6.69185C2.16503 6.69185 2.36076 6.69185 2.5565 6.62712C1.38207 6.43293 0.533872 5.3325 0.533872 4.16735C0.925349 4.36154 1.25158 4.42627 1.64306 4.42627C0.990595 3.97315 0.533872 3.26111 0.533872 2.35488C0.533872 1.90176 0.599117 1.44865 0.925348 1.06026C2.09978 2.6138 4.05717 3.58477 6.0798 3.71423C6.0798 3.52004 6.0798 3.32584 6.0798 3.19638C6.0798 1.83703 7.18898 0.671875 8.6244 0.671875C9.34211 0.671875 9.99457 0.930799 10.4513 1.51338C10.9733 1.44865 11.5605 1.12499 12.0172 0.866068C11.8215 1.38392 11.4952 1.96649 10.908 2.22542C11.43 2.16069 11.8867 2.03122 12.4087 1.83703C12.0172 2.29015 11.5605 2.808 11.1038 3.13165Z" fill="#1E2433"/>
</svg>
