<svg width="17" height="17" viewBox="0 0 17 17" fill="none" xmlns="http://www.w3.org/2000/svg">
<path d="M8.5005 0.50007C7.1041 0.494198 5.73068 0.855454 4.51789 1.54763C3.3051 2.23981 2.29554 3.2386 1.59039 4.4439C0.885244 5.64919 0.509276 7.01866 0.500169 8.41504C0.491063 9.81143 0.849137 11.1857 1.5385 12.4001L0.513505 16.0601C0.497293 16.1186 0.496659 16.1803 0.511665 16.2391C0.526671 16.2979 0.556796 16.3517 0.599048 16.3953C0.641301 16.4389 0.694213 16.4706 0.752532 16.4874C0.810852 16.5042 0.87255 16.5055 0.931505 16.4911L4.74751 15.5451C5.81944 16.1163 7.00749 16.4357 8.22137 16.479C9.43525 16.5223 10.643 16.2883 11.7529 15.7948C12.8628 15.3014 13.8456 14.5614 14.6267 13.6312C15.4078 12.701 15.9665 11.6049 16.2605 10.4264C16.5545 9.24787 16.576 8.01783 16.3233 6.82975C16.0707 5.64166 15.5506 4.52679 14.8025 3.56985C14.0544 2.61292 13.098 1.83909 12.006 1.30716C10.914 0.775238 9.71515 0.499216 8.5005 0.50007ZM8.5005 1.20007C9.61519 1.20129 10.7148 1.45777 11.715 1.94983C12.7152 2.44189 13.5894 3.15647 14.2706 4.03877C14.9519 4.92107 15.422 5.94766 15.645 7.03981C15.8679 8.13197 15.8378 9.26068 15.557 10.3394C15.2761 11.4181 14.752 12.4182 14.0247 13.2629C13.2974 14.1077 12.3863 14.7747 11.3613 15.2127C10.3363 15.6508 9.22464 15.8483 8.11147 15.7901C6.99831 15.7319 5.91325 15.4196 4.93951 14.8771C4.86252 14.8341 4.7721 14.8219 4.6865 14.8431L1.3445 15.6711L2.2445 12.4711C2.25726 12.4259 2.26073 12.3786 2.25472 12.332C2.2487 12.2854 2.23332 12.2405 2.2095 12.2001C1.55761 11.0914 1.21022 9.83008 1.20249 8.54393C1.19476 7.25779 1.52697 5.99243 2.1655 4.87596C2.80402 3.75949 3.72618 2.83153 4.83863 2.18603C5.95109 1.54053 7.21434 1.2004 8.5005 1.20007ZM5.5935 4.32607C5.44229 4.32898 5.29327 4.36287 5.15567 4.42565C5.01807 4.48843 4.89481 4.57876 4.79351 4.69107C4.53645 4.94243 4.332 5.24245 4.19208 5.57364C4.05215 5.90482 3.97955 6.26054 3.9785 6.62007C4.03593 7.46481 4.35346 8.27105 4.88751 8.92807C4.87851 8.91607 5.0115 9.10907 5.1875 9.34207C5.41966 9.64404 5.66733 9.93376 5.9295 10.2101C6.66028 11.0087 7.54456 11.6519 8.5295 12.1011C8.92169 12.2679 9.32223 12.4145 9.7295 12.5401C10.1991 12.6811 10.6948 12.7126 11.1785 12.6321C11.5049 12.57 11.8152 12.4421 12.0905 12.2561C12.4252 12.0768 12.6897 11.7901 12.8415 11.4421C12.9263 11.2114 12.9811 10.9707 13.0045 10.7261C13.0121 10.6349 13.0121 10.5432 13.0045 10.4521C13.0071 10.3554 12.9803 10.2602 12.9275 10.1791C12.7655 9.91307 12.5825 9.90607 12.3905 9.81107C12.2845 9.75807 11.9815 9.61107 11.6775 9.46607C11.3735 9.32107 11.1115 9.19307 10.9495 9.13607C10.8219 9.07874 10.6818 9.05499 10.5425 9.06707C10.4492 9.08291 10.3602 9.1177 10.2809 9.1693C10.2016 9.2209 10.1338 9.28821 10.0815 9.36707C9.9815 9.51207 9.5885 9.97907 9.4685 10.1161L9.4295 10.0961C9.2805 10.0221 9.09851 9.96007 8.8295 9.81707C8.47827 9.63125 8.15059 9.40396 7.8535 9.14007C7.4458 8.76205 7.09515 8.32685 6.81251 7.84807C6.82051 7.83807 6.81251 7.84807 6.82851 7.83307C6.95251 7.71107 7.0625 7.56507 7.1555 7.45807C7.25851 7.33384 7.34366 7.19584 7.4085 7.04807C7.45595 6.94275 7.47905 6.8281 7.47611 6.71263C7.47317 6.59716 7.44425 6.48383 7.3915 6.38107C7.3965 6.39107 7.3525 6.29307 7.3045 6.18107C7.25651 6.06907 7.19551 5.92107 7.13051 5.76507C7.0005 5.45307 6.8545 5.10207 6.7685 4.89707C6.69561 4.68394 6.54585 4.50566 6.34851 4.39707C6.24053 4.34676 6.12112 4.32605 6.0025 4.33707C5.87451 4.32807 5.7335 4.32607 5.5935 4.32607ZM5.5935 5.02607C5.7275 5.02607 5.8595 5.02607 5.9705 5.03307C6.0815 5.04007 6.0775 5.03907 6.0555 5.03307C6.0335 5.02707 6.0635 5.01907 6.1285 5.17307C6.2135 5.37307 6.3595 5.72607 6.4895 6.03907C6.5545 6.19607 6.6155 6.33907 6.6645 6.45807C6.7135 6.57707 6.73951 6.63807 6.77051 6.69907C6.80051 6.75807 6.7975 6.72007 6.7875 6.74107C6.74843 6.83478 6.69551 6.92208 6.63051 7.00007C6.51751 7.13007 6.4025 7.27507 6.34151 7.33607C6.24853 7.41544 6.17643 7.51638 6.13151 7.63007C6.10359 7.72023 6.09494 7.81526 6.10614 7.90898C6.11734 8.00271 6.14813 8.09302 6.19651 8.17407C6.52289 8.72883 6.93154 9.23087 7.4085 9.66307C7.74686 9.96334 8.11982 10.2222 8.5195 10.4341C8.8285 10.5971 9.0805 10.6921 9.1365 10.7201C9.27305 10.7979 9.42986 10.8327 9.5865 10.8201C9.74612 10.7951 9.89154 10.7139 9.9965 10.5911C10.1205 10.4501 10.4895 10.0291 10.6665 9.77007C10.6735 9.77007 10.6715 9.77007 10.7305 9.79207C10.7575 9.80207 11.0935 9.95207 11.3935 10.0921C11.6935 10.2321 11.9935 10.3831 12.0935 10.4321C12.2365 10.5031 12.3035 10.5491 12.3215 10.5491C12.3242 10.587 12.3242 10.6251 12.3215 10.6631C12.3029 10.8476 12.2613 11.029 12.1975 11.2031C12.0834 11.3947 11.9223 11.554 11.7295 11.6661C11.5319 11.7923 11.315 11.8855 11.0875 11.9421C10.7077 12.0078 10.3178 11.9845 9.9485 11.8741C9.56188 11.7556 9.18169 11.6171 8.8095 11.4591C7.9117 11.0458 7.10531 10.4577 6.4375 9.72907C6.19196 9.47025 5.95999 9.19888 5.74251 8.91607C5.57551 8.69907 5.5025 8.58607 5.4425 8.50607C5.01781 7.96007 4.75205 7.30744 4.6745 6.62007C4.66333 6.34601 4.71377 6.07294 4.82211 5.82096C4.93045 5.56898 5.09393 5.34451 5.30051 5.16407C5.33713 5.12174 5.38201 5.08731 5.43238 5.0629C5.48276 5.03848 5.53758 5.02459 5.5935 5.02207V5.02607Z" fill="#1E2433" stroke="#1E2433" stroke-width="0.3"/>
</svg>
