<svg width="13" height="9" viewBox="0 0 13 9" fill="none" xmlns="http://www.w3.org/2000/svg">
<path d="M12.0033 7.37543C11.8728 7.958 11.4161 8.47585 10.6984 8.54058C9.1977 8.67004 7.76228 8.73478 6.26162 8.73478C4.76095 8.73478 3.32554 8.73478 1.82487 8.54058C1.23766 8.41112 0.715688 8.02274 0.519949 7.37543C0.324211 6.46919 0.324219 5.56296 0.324219 4.592C0.324219 3.68577 0.324211 2.7148 0.519949 1.80857C0.650442 1.22599 1.10717 0.708143 1.82487 0.643412C3.32554 0.51395 4.76095 0.449219 6.26162 0.449219C7.76228 0.449219 9.1977 0.449219 10.6984 0.643412C11.2856 0.772873 11.8075 1.16126 12.0033 1.80857C12.199 2.7148 12.199 3.62103 12.199 4.592C12.2643 5.49823 12.199 6.46919 12.0033 7.37543Z" fill="#1E2433"/>
<path d="M5.34766 6.08196L8.47948 4.2695L5.34766 2.45703V6.08196Z" fill="#F7F9FD"/>
</svg>
